<svg width="543.684" height="543.684" xmlns="http://www.w3.org/2000/svg" xmlns:svg="http://www.w3.org/2000/svg">

 <g>
  <title>Layer 1</title>
  <g id="svg_1">
   <g id="svg_2">
    <path fill="#fcfcfc" id="svg_3" d="m528.656982,106.696999c-2.68103,0.782997 -5.361023,1.512001 -8.041016,2.191002c-16.383972,4.137001 -17.889984,-1.321999 -6.028015,-13.366005c5.312012,-5.396996 10.006042,-11.266998 14.082031,-17.606995c9.137024,-14.217003 1.211975,-20.417004 -14.333008,-13.776001c-5.544983,2.368996 -11.182007,4.516998 -16.897003,6.431999c-16.016998,5.378998 -38.746002,-2.735001 -53.018005,-11.787003c-18.017975,-11.425999 -38.494995,-17.135998 -61.437988,-17.135998c-32.136993,0 -59.528992,11.334 -82.191986,33.984005c-22.656006,22.661995 -33.990021,50.061996 -33.990021,82.190994c0,4.393997 0.251007,8.854996 0.747009,13.378006c0.813995,7.362 -11.585007,12.699005 -28.317001,10.335999c-36.194,-5.110001 -70.582001,-16.076996 -103.171005,-32.888992c-32.319992,-16.671005 -60.844994,-37.650009 -85.569992,-62.938004c-11.818981,-12.086006 -27.803982,-11.045006 -32.216982,5.269997c-2.644,9.779999 -3.959001,19.951004 -3.959001,30.514999c0,19.907997 4.675,38.372002 14.026999,55.391991c4.651005,8.470001 10.098,16.138016 16.353001,22.999008c10.521,11.548996 8.911003,18.25 -5.733997,14.143997c-14.639002,-4.106003 -25.367002,-10.201996 -25.367002,-9.804001s0,0.722 0,0.722c0,28.048004 8.806999,52.692993 26.432001,73.911011c10.856998,13.071991 23.469997,23.169983 37.834,30.281982c15.146996,7.503021 22.202995,11.688019 13.733002,12.784027c-5.110001,0.66098 -10.251007,0.990997 -15.422005,0.990997c-3.5,0 -7.171997,-0.158997 -11.002998,-0.483002c-6.059002,-0.514008 -7.147999,12.110992 2.038002,26.298004c7.300995,11.27298 16.645996,21.192993 28.029999,29.761993c11.579002,8.720978 24.057999,14.980988 37.417,18.794006c16.255005,4.632996 19.516998,13.072998 5.024002,21.763c-35.862999,21.518982 -75.551006,32.276978 -119.058001,32.276978c-4.902,0 -9.578,-0.109985 -14.045,-0.323975c-7.754,-0.373016 -2.552,6.455994 12.417,14.29599c46.775002,24.498993 97.429996,36.738007 151.971996,36.738007c41.237,0 79.964005,-6.529022 116.17601,-19.596008c36.199005,-13.06601 67.135986,-30.576019 92.790985,-52.515991c25.654999,-21.940002 47.779022,-47.173004 66.365021,-75.710999c18.580994,-28.537018 32.423981,-58.330017 41.542999,-89.376007c9.105988,-31.053009 13.665985,-62.167007 13.665985,-93.34201c0,-2.809006 -0.023987,-5.330994 -0.066986,-7.552002c-0.085999,-4.173996 10.954987,-15.472 23.279968,-27.031998c5.563049,-5.220001 10.869019,-10.697998 15.937012,-16.444c11.179016,-12.688004 6.228027,-18.501999 -9.997009,-13.771004z"/>
   </g>
  </g>
  <g id="svg_4"/>
  <g id="svg_5"/>
  <g id="svg_6"/>
  <g id="svg_7"/>
  <g id="svg_8"/>
  <g id="svg_9"/>
  <g id="svg_10"/>
  <g id="svg_11"/>
  <g id="svg_12"/>
  <g id="svg_13"/>
  <g id="svg_14"/>
  <g id="svg_15"/>
  <g id="svg_16"/>
  <g id="svg_17"/>
  <g id="svg_18"/>
 </g>
</svg>
